<?xml version="1.0" encoding="UTF-8" standalone="no"?>
<!-- Created with Inkscape (http://www.inkscape.org/) -->

<svg
   width="292.21393mm"
   height="313.22943mm"
   viewBox="0 0 292.21393 313.22943"
   version="1.1"
   id="svg5"
   inkscape:version="1.2.2 (732a01da63, 2022-12-09)"
   sodipodi:docname="helm-clean-values.svg"
   xmlns:inkscape="http://www.inkscape.org/namespaces/inkscape"
   xmlns:sodipodi="http://sodipodi.sourceforge.net/DTD/sodipodi-0.dtd"
   xmlns="http://www.w3.org/2000/svg"
   xmlns:svg="http://www.w3.org/2000/svg">
  <sodipodi:namedview
     id="namedview7"
     pagecolor="#ffffff"
     bordercolor="#000000"
     borderopacity="0.25"
     inkscape:showpageshadow="false"
     inkscape:pageopacity="0"
     inkscape:pagecheckerboard="0"
     inkscape:deskcolor="#d1d1d1"
     inkscape:document-units="mm"
     showgrid="false"
     showborder="false"
     showguides="true"
     borderlayer="false"
     shape-rendering="crispEdges"
     inkscape:zoom="0.36925856"
     inkscape:cx="2108.2788"
     inkscape:cy="471.21454"
     inkscape:window-width="1920"
     inkscape:window-height="1009"
     inkscape:window-x="1912"
     inkscape:window-y="-8"
     inkscape:window-maximized="1"
     inkscape:current-layer="layer1" />
  <defs
     id="defs2" />
  <g
     inkscape:label="Ebene 1"
     inkscape:groupmode="layer"
     id="layer1"
     transform="translate(-523.4684,22.774047)">
    <path
       id="path8262"
       style="fill:none;fill-opacity:1;stroke:#bebdbc;stroke-width:1.534;stroke-linejoin:round;stroke-dasharray:none;stroke-opacity:1"
       d="m 669.57515,10.134265 a 125.69224,125.69224 0 0 0 -114.8333,74.798019 h 15.74426 a 111.40911,111.40911 0 0 1 99.08904,-60.514653 111.40911,111.40911 0 0 1 23.32674,2.546615 l 4.51342,-13.657048 a 125.69224,125.69224 0 0 0 -27.84016,-3.172933 z m 46.09693,8.853723 -4.47363,13.538709 a 111.40911,111.40911 0 0 1 57.46626,52.405587 h 15.74426 A 125.69224,125.69224 0 0 0 715.67208,18.987988 Z M 562.66746,201.76805 a 125.69224,125.69224 0 0 0 35.69808,37.54292 41.255097,64.174078 18.286897 0 1 11.48974,-9.47952 111.40911,111.40911 0 0 1 -30.05088,-28.0634 z m 196.69394,0 a 111.40911,111.40911 0 0 1 -89.78625,45.46751 111.40911,111.40911 0 0 1 -11.38897,-0.60979 41.255097,64.174078 18.286897 0 1 3.33106,14.60015 125.69224,125.69224 0 0 0 8.05791,0.293 125.69224,125.69224 0 0 0 106.9945,-59.75087 z m -140.94023,44.52803 -1.33584,3.67574 a 125.69224,125.69224 0 0 0 0.20154,0.0966 z m 16.73283,2.95279 -2.59881,6.65851 a 125.69224,125.69224 0 0 0 0.69453,0.20929 z m 17.19171,2.19883 -2.61173,8.45737 a 125.69224,125.69224 0 0 0 0.63614,0.0956 z m -6.7076,2.33526 -2.72231,4.85035 a 125.69224,125.69224 0 0 0 0.56275,0.11834 z"
       inkscape:export-filename="..\Desktop\logo.svg"
       inkscape:export-xdpi="96"
       inkscape:export-ydpi="96" />
    <path
       id="path8377"
       style="fill:#6bbbfb;fill-opacity:1;stroke-width:0.767932;stroke-linejoin:round;stroke-opacity:0.502783"
       d="m 717.55827,-22.771737 c -2.88407,-0.07484 -5.56377,1.675149 -6.49676,4.498434 L 676.24813,87.073238 h 14.27458 l 33.40778,-101.093571 c 1.14831,-3.474811 -0.79685,-7.22098 -4.36149,-8.39897 -0.66837,-0.220873 -1.34518,-0.335163 -2.01073,-0.352434 z m -0.30644,4.626075 a 2.7792383,4.0170936 18.286897 0 1 0.87746,0.0832 2.7792383,4.0170936 18.286897 0 1 1.37821,4.686019 2.7792383,4.0170936 18.286897 0 1 -3.8995,2.942456 2.7792383,4.0170936 18.286897 0 1 -1.37821,-4.686536 2.7792383,4.0170936 18.286897 0 1 3.02204,-3.025138 z m -77.72446,216.339252 -9.05423,27.39781 c -1.1483,3.4748 0.79686,7.22046 4.3615,8.39845 3.56464,1.17799 7.35867,-0.67066 8.50697,-4.14548 l 10.45931,-31.65078 z" />
    <path
       id="path8379"
       style="fill:#6bbbfb;fill-opacity:1;stroke-width:1.14687;stroke-linejoin:round;stroke-opacity:0.502783"
       d="m 641.96901,212.36391 a 14.815793,36.05649 18.286897 0 0 -20.20112,17.30836 l 26.1333,8.63613 a 14.815793,36.05649 18.286897 0 0 -5.93218,-25.94449 z" />
    <path
       id="path8381"
       style="fill:#6bbbfb;fill-opacity:1;stroke-width:0.190204;stroke-linejoin:round;stroke-opacity:0.502783"
       d="m 648.71947,239.77652 c -0.0942,0.0307 -0.18373,0.0364 -0.26579,0.009 l -29.18631,-9.64505 a 35.644076,55.445893 18.286897 0 0 -33.65832,37.99013 l 3.05308,1.00893 3.54714,-8.28897 -2.14829,8.75124 1.4122,0.46668 8.16989,-20.95427 -6.0152,21.66632 4.25816,1.40717 6.85987,-22.72708 -4.68812,23.44477 2.56751,0.84847 7.61668,-17.79739 -4.61407,18.78965 3.12289,1.03201 10.0227,-27.57776 -8.44939,28.09768 4.05026,1.33847 7.45779,-16.31973 -3.88421,17.50067 3.83493,1.26731 11.44773,-29.33305 -8.41246,30.3361 2.22892,0.73658 15.24201,-27.15512 -12.23493,28.14885 3.07091,1.01483 8.62988,-19.95128 -6.53682,20.64296 2.74348,0.90662 10.12268,-32.77986 -7.75267,33.56307 3.31223,1.09457 5.10682,-22.37916 -0.34676,23.95219 4.76081,1.57329 a 35.644076,55.445893 18.286897 0 0 -4.44522,-50.67913 z" />
    <path
       d="m 551.514,110.66645 q 0,6.22467 3.25066,11.20441 3.31983,4.91057 9.19868,7.12379 1.38326,0.5533 2.97401,1.03744 1.59075,0.41498 3.04317,0.41498 h 31.53833 q 0,0 0.20749,0 0.20749,-0.0692 0.34582,-0.13833 0.0692,0 0.20749,-0.0692 0.20748,-0.0692 0.20748,-0.0692 1.79824,-0.7608 2.76652,-2.14406 0.96829,-1.45242 0.96829,-3.38898 0,-1.93657 -1.03745,-3.38899 -0.96828,-1.52159 -2.83568,-2.28238 -0.20749,-0.0692 -0.69163,-0.20749 -0.48414,-0.13832 -0.62247,-0.13832 h -30.01674 q -0.13833,0 -0.76079,-0.0692 -0.55331,-0.13832 -0.82996,-0.27665 -0.20749,-0.0692 -0.69163,-0.20749 -0.48414,-0.13832 -0.62247,-0.20749 -2.69736,-1.17577 -3.7348,-3.04317 -0.96828,-1.93656 -0.96828,-4.77225 0,-2.76652 1.45242,-4.84141 1.45242,-2.07489 4.28811,-2.83568 0.41498,-0.13833 1.31409,-0.27665 0.89912,-0.20749 0.96829,-0.20749 h 30.0859 q 0,0 0.41498,-0.13833 0.41498,-0.13832 0.5533,-0.20749 1.79824,-0.76079 2.76652,-2.144049 0.96829,-1.452423 0.96829,-3.388987 0,-1.037445 -0.41498,-2.07489 -0.34582,-1.106608 -1.03745,-1.936564 -0.62246,-0.829956 -1.59075,-1.38326 -0.96828,-0.553304 -2.14405,-0.553304 h -30.50088 q -1.72908,0 -3.52732,0.553304 -1.72907,0.484141 -3.31982,1.037445 -3.11234,1.037445 -5.39471,2.974009 -2.28238,1.936564 -3.80397,4.495595 -1.52159,2.489871 -2.28238,5.463881 -0.69163,2.97401 -0.69163,6.08634 z"
       id="path344"
       style="font-size:69.163px;font-family:'Quantum Round (BRK)';-inkscape-font-specification:'Quantum Round (BRK), Normal';text-align:center;word-spacing:1.60034px;text-anchor:middle;fill:#396aa2;stroke-width:1.29538;stroke-linejoin:round;stroke-opacity:0.502783" />
    <path
       d="m 613.41495,75.669972 q -0.96829,0 -2.00573,0.414978 -1.03745,0.345815 -1.8674,1.037445 -0.82996,0.69163 -1.38326,1.659912 -0.55331,0.968282 -0.55331,2.07489 v 44.402643 q 0,1.17578 0.55331,2.14406 0.5533,0.96828 1.38326,1.65991 0.82995,0.62247 1.8674,1.03744 1.10661,0.34582 2.14405,0.34582 1.45242,0 2.76652,-0.62247 1.38326,-0.62246 2.14405,-1.93656 0.20749,-0.34582 0.55331,-0.96828 0.34581,-0.69163 0.34581,-1.17577 V 80.580545 q 0,-1.106608 -0.5533,-2.005727 -0.5533,-0.899119 -1.45242,-1.521586 -0.89912,-0.69163 -1.93657,-1.037445 -1.03744,-0.345815 -2.00572,-0.345815 z"
       id="path346"
       style="font-size:69.163px;font-family:'Quantum Round (BRK)';-inkscape-font-specification:'Quantum Round (BRK), Normal';text-align:center;word-spacing:1.60034px;text-anchor:middle;fill:#396aa2;stroke-width:1.29538;stroke-linejoin:round;stroke-opacity:0.502783" />
    <path
       d="m 620.74626,110.32064 q 0,3.11233 0.7608,5.94801 0.82995,2.83569 2.35154,5.25639 1.52158,2.42071 3.7348,4.35727 2.28238,1.8674 5.18723,2.97401 1.52158,0.5533 3.18149,1.10661 1.65992,0.48414 3.25066,0.48414 h 31.53833 q 0,0 0.20749,0 0.20749,-0.0692 0.34582,-0.13833 0.0692,0 0.20749,-0.0692 0.20749,-0.0692 0.20749,-0.0692 1.79823,-0.7608 2.76652,-2.14406 0.96828,-1.45242 0.96828,-3.38898 0,-1.93657 -1.03745,-3.38899 -0.96828,-1.52159 -2.83568,-2.28238 -0.20749,-0.0692 -0.69163,-0.20749 -0.48414,-0.13832 -0.62247,-0.13832 h -30.01674 q -0.48414,0 -1.45242,-0.27666 -0.96829,-0.34581 -1.45243,-0.48414 -2.55903,-0.96828 -3.66564,-2.97401 -1.03744,-2.07489 -1.03744,-4.63392 0,-2.62819 1.10661,-4.63392 1.17577,-2.00573 3.7348,-2.97401 0.76079,-0.27665 1.59075,-0.48414 0.82995,-0.20749 1.59075,-0.20749 h 21.78634 q 0.13833,0 0.62247,0.13833 0.48414,0.13832 0.48414,0.41498 v 1.79823 h -23.30793 q -0.13833,0 -0.62247,0.13833 -0.48414,0.13833 -0.69163,0.20749 -1.79824,0.69163 -2.83568,2.21322 -1.03745,1.52158 -1.03745,3.38898 0,0.96828 0.34582,2.00573 0.34581,1.03744 0.96828,1.93656 0.69163,0.82996 1.59075,1.38326 0.89912,0.55331 1.93656,0.55331 h 30.8467 q 0.69163,0 1.52159,-0.41498 0.82996,-0.48414 1.52159,-1.17577 0.76079,-0.76079 1.17577,-1.52159 0.48414,-0.82995 0.48414,-1.59075 v -10.02863 q 0,-2.213218 -1.10661,-4.218945 -1.03745,-2.07489 -2.76652,-3.665639 -1.72908,-1.590749 -3.87313,-2.489868 -2.14405,-0.968282 -4.2881,-0.968282 h -23.65375 q -1.38326,0 -2.90485,0.345815 -1.45242,0.345815 -2.76652,0.829956 -6.57048,2.213216 -9.95947,7.262115 -3.38899,4.979738 -3.38899,11.826878 z"
       id="path348"
       style="font-size:69.163px;font-family:'Quantum Round (BRK)';-inkscape-font-specification:'Quantum Round (BRK), Normal';text-align:center;word-spacing:1.60034px;text-anchor:middle;fill:#396aa2;stroke-width:1.29538;stroke-linejoin:round;stroke-opacity:0.502783" />
    <path
       d="m 676.83751,117.51359 q 0,4.01145 2.00573,7.19295 2.00572,3.1815 5.74053,4.77225 0.69163,0.27665 1.8674,0.62246 1.24493,0.34582 2.00573,0.34582 h 38.38546 q 0.69163,0 1.52159,-0.41498 0.82995,-0.48414 1.52158,-1.17577 0.7608,-0.76079 1.17577,-1.52159 0.48415,-0.82995 0.48415,-1.59074 v -21.09472 q 0,-1.10661 -0.34582,-2.21322 -0.27665,-1.17577 -0.69163,-2.21321 -0.76079,-2.144056 -2.14405,-3.803968 -1.3141,-1.729075 -3.04317,-2.974009 -1.72908,-1.244934 -3.80397,-2.005727 -2.00573,-0.829956 -4.14978,-1.244934 -0.13833,0 -0.69163,-0.06916 -0.48414,-0.06916 -0.62247,-0.06916 h -34.02819 q -1.17578,0 -2.14406,0.553304 -0.89912,0.553304 -1.59075,1.38326 -0.69163,0.829956 -1.1066,1.867401 -0.34582,1.037445 -0.34582,2.07489 0,1.729075 0.82996,3.250661 0.89912,1.521592 2.62819,2.213222 0.27665,0.13832 0.82996,0.34581 0.5533,0.13833 0.5533,0.13833 h 33.54406 q 0.0692,0 0.89912,0.27665 0.82995,0.20749 1.24493,0.34582 0.89912,0.34581 1.59075,1.24493 0.69163,0.82996 0.69163,1.79824 v 13.00264 H 689.5635 q -0.5533,0 -0.69163,-0.34581 -0.13832,-0.34582 -0.13832,-0.7608 0,-0.5533 0.27665,-0.89911 0.27665,-0.34582 0.82996,-0.34582 h 22.68546 q 0,0 0.34581,-0.13833 0.41498,-0.13832 0.62247,-0.20748 1.79824,-0.7608 2.76652,-2.14406 0.96828,-1.45242 0.96828,-3.38898 0,-1.03745 -0.41497,-2.07489 -0.34582,-1.10661 -1.03745,-1.93657 -0.62247,-0.82995 -1.59075,-1.38326 -0.96828,-0.5533 -2.14405,-0.5533 h -23.16961 q -0.76079,0 -1.72907,0.27665 -0.96828,0.20749 -1.72908,0.48414 -4.14978,1.38326 -6.36299,4.77225 -2.21322,3.31982 -2.21322,7.60793 z"
       id="path350"
       style="font-size:69.163px;font-family:'Quantum Round (BRK)';-inkscape-font-specification:'Quantum Round (BRK), Normal';text-align:center;word-spacing:1.60034px;text-anchor:middle;fill:#396aa2;stroke-width:1.29538;stroke-linejoin:round;stroke-opacity:0.502783" />
    <path
       d="m 781.82701,130.44707 q 1.45242,0 2.83568,-0.62247 1.38326,-0.62246 2.14405,-1.93656 0.13833,-0.34582 0.48415,-0.96828 0.34581,-0.69163 0.34581,-1.17577 v -17.7749 q 0,-0.76079 -0.27665,-2.00572 -0.27665,-1.24494 -0.41498,-2.00573 -1.38326,-4.910574 -5.0489,-8.230398 -3.66564,-3.388987 -8.43788,-4.772247 -1.17578,-0.345815 -2.42071,-0.622467 -1.24493,-0.276652 -2.42071,-0.276652 h -30.50088 q -0.96828,0 -1.8674,0.484141 -0.89912,0.414978 -1.65991,1.175771 -0.7608,0.760793 -1.24494,1.729075 -0.41497,0.899119 -0.41497,1.798238 v 30.016739 q 0,1.17578 0.5533,2.14406 0.5533,0.96828 1.38326,1.65991 0.82996,0.62247 1.8674,1.03744 1.10661,0.34582 2.14405,0.34582 1.93657,0 3.31983,-0.96828 1.45242,-0.96828 2.21321,-2.76652 0.0692,-0.13833 0.20749,-0.55331 0.13833,-0.41497 0.13833,-0.41497 v -23.79208 h 23.10044 q 2.55903,0 4.70309,1.52159 2.21321,1.52158 2.90484,3.94229 0.0692,0.27665 0.20749,0.82996 0.13833,0.5533 0.13833,0.5533 v 16.46079 q 0,0.13833 0.13832,0.62247 0.13833,0.48414 0.20749,0.69163 0.7608,1.8674 2.21322,2.90485 1.52158,0.96828 3.45815,0.96828 z"
       id="path352"
       style="font-size:69.163px;font-family:'Quantum Round (BRK)';-inkscape-font-specification:'Quantum Round (BRK), Normal';text-align:center;word-spacing:1.60034px;text-anchor:middle;fill:#396aa2;stroke-width:1.29538;stroke-linejoin:round;stroke-opacity:0.502783" />
    <path
       d="m 523.46838,161.47079 q 0,2.00572 0.96828,3.45815 l 21.50969,28.63348 q 1.79824,2.42071 4.91057,2.42071 1.3141,0 2.48987,-0.41498 1.24494,-0.48414 2.07489,-1.59075 l 21.92467,-29.18679 q 0.55331,-0.76079 0.69163,-1.52158 0.13833,-0.82996 0.13833,-1.72908 0,-2.48987 -1.72907,-4.21894 -1.65992,-1.72908 -4.21895,-1.72908 -1.38326,0 -2.62819,0.62247 -1.17577,0.5533 -2.00573,1.65991 l -16.73745,22.27049 -16.66828,-22.13216 q -1.79824,-2.42071 -4.91057,-2.42071 -2.42071,0 -4.14978,1.72908 -1.65991,1.72907 -1.65991,4.14978 z"
       id="path354"
       style="font-size:69.163px;font-family:'Quantum Round (BRK)';-inkscape-font-specification:'Quantum Round (BRK), Normal';text-align:center;word-spacing:1.60034px;text-anchor:middle;fill:#396aa2;stroke-width:1.29538;stroke-linejoin:round;stroke-opacity:0.502783" />
    <path
       d="m 579.55963,183.04964 q 0,4.01146 2.00572,7.19296 2.00573,3.18149 5.74053,4.77224 0.69163,0.27666 1.8674,0.62247 1.24494,0.34582 2.00573,0.34582 h 38.38547 q 0.69163,0 1.52158,-0.41498 0.82996,-0.48414 1.52159,-1.17577 0.76079,-0.7608 1.17577,-1.52159 0.48414,-0.82996 0.48414,-1.59075 v -21.09471 q 0,-1.10661 -0.34581,-2.21322 -0.27666,-1.17577 -0.69163,-2.21322 -0.7608,-2.14405 -2.14406,-3.80396 -1.31409,-1.72908 -3.04317,-2.97401 -1.72907,-1.24493 -3.80396,-2.00573 -2.00573,-0.82995 -4.14978,-1.24493 -0.13833,0 -0.69163,-0.0692 -0.48414,-0.0692 -0.62247,-0.0692 h -34.0282 q -1.17577,0 -2.14405,0.55331 -0.89912,0.5533 -1.59075,1.38326 -0.69163,0.82995 -1.10661,1.8674 -0.34581,1.03744 -0.34581,2.07489 0,1.72907 0.82995,3.25066 0.89912,1.52158 2.6282,2.21321 0.27665,0.13833 0.82995,0.34582 0.55331,0.13833 0.55331,0.13833 h 33.54405 q 0.0692,0 0.89912,0.27665 0.82996,0.20749 1.24494,0.34581 0.89912,0.34582 1.59075,1.24494 0.69163,0.82995 0.69163,1.79823 v 13.00265 h -30.08591 q -0.5533,0 -0.69163,-0.34582 -0.13833,-0.34581 -0.13833,-0.76079 0,-0.5533 0.27666,-0.89912 0.27665,-0.34581 0.82995,-0.34581 h 22.68547 q 0,0 0.34581,-0.13833 0.41498,-0.13832 0.62247,-0.20749 1.79824,-0.76079 2.76652,-2.14405 0.96828,-1.45242 0.96828,-3.38899 0,-1.03744 -0.41498,-2.07489 -0.34581,-1.10661 -1.03744,-1.93656 -0.62247,-0.82996 -1.59075,-1.38326 -0.96828,-0.55331 -2.14405,-0.55331 h -23.16961 q -0.76079,0 -1.72908,0.27666 -0.96828,0.20748 -1.72907,0.48414 -4.14978,1.38326 -6.363,4.77224 -2.21321,3.31983 -2.21321,7.60793 z"
       id="path356"
       style="font-size:69.163px;font-family:'Quantum Round (BRK)';-inkscape-font-specification:'Quantum Round (BRK), Normal';text-align:center;word-spacing:1.60034px;text-anchor:middle;fill:#396aa2;stroke-width:1.29538;stroke-linejoin:round;stroke-opacity:0.502783" />
    <path
       d="m 641.46057,141.20603 q -0.96828,0 -2.00573,0.41498 -1.03744,0.34581 -1.8674,1.03744 -0.82995,0.69163 -1.38326,1.65991 -0.5533,0.96829 -0.5533,2.07489 v 44.40265 q 0,1.17577 0.5533,2.14405 0.55331,0.96829 1.38326,1.65992 0.82996,0.62246 1.8674,1.03744 1.10661,0.34582 2.14406,0.34582 1.45242,0 2.76652,-0.62247 1.38326,-0.62247 2.14405,-1.93657 0.20749,-0.34581 0.5533,-0.96828 0.34582,-0.69163 0.34582,-1.17577 V 146.1166 q 0,-1.10661 -0.55331,-2.00573 -0.5533,-0.89911 -1.45242,-1.52158 -0.89912,-0.69163 -1.93656,-1.03745 -1.03745,-0.34581 -2.00573,-0.34581 z"
       id="path358"
       style="font-size:69.163px;font-family:'Quantum Round (BRK)';-inkscape-font-specification:'Quantum Round (BRK), Normal';text-align:center;word-spacing:1.60034px;text-anchor:middle;fill:#396aa2;stroke-width:1.29538;stroke-linejoin:round;stroke-opacity:0.502783" />
    <path
       d="m 654.60158,155.59193 q -0.96828,0 -2.00573,0.41498 -1.03744,0.34582 -1.8674,1.03745 -0.82996,0.69163 -1.38326,1.65991 -0.55331,0.96828 -0.55331,2.07489 v 16.18414 q 0,1.3141 0.27666,2.69736 0.34581,1.31409 0.69163,2.55903 1.52158,4.70308 4.77224,8.2304 3.31983,3.45815 8.16124,4.84141 0.76079,0.13832 2.00573,0.41497 1.24493,0.27666 2.00572,0.27666 h 18.3282 q 0.62247,0 1.93656,-0.27666 1.3141,-0.27665 1.93657,-0.41497 5.53304,-1.52159 9.337,-5.39472 3.87313,-3.94229 4.97974,-9.68282 0.0692,-0.34581 0.13832,-1.10661 0.13833,-0.76079 0.13833,-0.89912 v -17.70572 q 0,-1.10661 -0.5533,-2.00573 -0.55331,-0.89912 -1.45243,-1.52159 -0.89912,-0.69163 -1.93656,-1.03744 -1.03745,-0.34582 -2.00573,-0.34582 -1.72907,0 -3.25066,0.96828 -1.45242,0.96829 -2.14405,2.6282 -0.13833,0.34581 -0.34582,0.96828 -0.13832,0.5533 -0.13832,0.62247 v 16.46079 q 0,1.38326 -0.69163,2.6282 -0.69163,1.24493 -1.79824,2.21321 -1.03745,0.89912 -2.42071,1.45243 -1.31409,0.5533 -2.62819,0.5533 h -16.59912 q -2.42071,0 -4.14978,-1.72908 -1.65991,-1.79823 -2.28238,-4.01145 -0.13833,-0.41498 -0.34582,-1.17577 -0.13832,-0.82996 -0.13832,-0.96828 v -15.7 q 0,-0.0692 -0.20749,-0.62247 -0.13833,-0.55331 -0.27665,-0.82996 -0.69163,-1.72907 -2.28238,-2.55903 -1.52159,-0.89912 -3.25066,-0.89912 z"
       id="path360"
       style="font-size:69.163px;font-family:'Quantum Round (BRK)';-inkscape-font-specification:'Quantum Round (BRK), Normal';text-align:center;word-spacing:1.60034px;text-anchor:middle;fill:#396aa2;stroke-width:1.29538;stroke-linejoin:round;stroke-opacity:0.502783" />
    <path
       d="m 704.88314,175.85669 q 0,3.11234 0.76079,5.94802 0.82996,2.83568 2.35155,5.25639 1.52158,2.4207 3.7348,4.35727 2.28238,1.8674 5.18722,2.97401 1.52159,0.5533 3.1815,1.1066 1.65991,0.48415 3.25066,0.48415 h 31.53833 q 0,0 0.20749,0 0.20749,-0.0692 0.34581,-0.13833 0.0692,0 0.20749,-0.0692 0.20749,-0.0692 0.20749,-0.0692 1.79824,-0.76079 2.76652,-2.14405 0.96828,-1.45242 0.96828,-3.38899 0,-1.93656 -1.03744,-3.38898 -0.96828,-1.52159 -2.83568,-2.28238 -0.20749,-0.0692 -0.69163,-0.20749 -0.48414,-0.13833 -0.62247,-0.13833 h -30.01674 q -0.48414,0 -1.45243,-0.27665 -0.96828,-0.34581 -1.45242,-0.48414 -2.55903,-0.96828 -3.66564,-2.97401 -1.03744,-2.07489 -1.03744,-4.63392 0,-2.62819 1.1066,-4.63392 1.17578,-2.00573 3.73481,-2.97401 0.76079,-0.27665 1.59075,-0.48414 0.82995,-0.20749 1.59074,-0.20749 h 21.78635 q 0.13833,0 0.62247,0.13832 0.48414,0.13833 0.48414,0.41498 v 1.79824 h -23.30793 q -0.13833,0 -0.62247,0.13833 -0.48414,0.13832 -0.69163,0.20749 -1.79824,0.69163 -2.83568,2.21321 -1.03745,1.52159 -1.03745,3.38899 0,0.96828 0.34582,2.00573 0.34581,1.03744 0.96828,1.93656 0.69163,0.82996 1.59075,1.38326 0.89912,0.5533 1.93656,0.5533 h 30.8467 q 0.69163,0 1.52159,-0.41497 0.82995,-0.48414 1.52158,-1.17577 0.7608,-0.7608 1.17577,-1.52159 0.48414,-0.82996 0.48414,-1.59075 v -10.02864 q 0,-2.21321 -1.1066,-4.21894 -1.03745,-2.07489 -2.76652,-3.66564 -1.72908,-1.59075 -3.87313,-2.48987 -2.14405,-0.96828 -4.28811,-0.96828 h -23.65374 q -1.38326,0 -2.90485,0.34582 -1.45242,0.34581 -2.76652,0.82995 -6.57049,2.21322 -9.95947,7.26212 -3.38899,4.97973 -3.38899,11.82687 z"
       id="path362"
       style="font-size:69.163px;font-family:'Quantum Round (BRK)';-inkscape-font-specification:'Quantum Round (BRK), Normal';text-align:center;word-spacing:1.60034px;text-anchor:middle;fill:#396aa2;stroke-width:1.29538;stroke-linejoin:round;stroke-opacity:0.502783" />
    <path
       d="m 760.97439,190.10427 q 0,0.96828 0.34581,2.00573 0.34582,1.03744 0.96828,1.93656 0.69163,0.82996 1.59075,1.38326 0.89912,0.55331 1.93657,0.55331 h 31.4 q 1.38326,0 2.83568,-0.34582 1.52159,-0.41498 2.90485,-0.96828 6.08634,-2.21322 9.40617,-6.98546 3.31982,-4.77225 3.31982,-11.27357 v -1.59075 q -0.20749,-0.89912 -0.69163,-1.72908 -0.41498,-0.89912 -1.10661,-1.59075 -0.69163,-0.76079 -1.59074,-1.17577 -0.82996,-0.48414 -1.79824,-0.48414 h -35.48062 q 0.69163,-0.76079 1.65991,-1.17577 0.96828,-0.48414 1.93656,-0.76079 0.41498,-0.13833 1.3141,-0.27666 0.89912,-0.20748 0.96828,-0.20748 h 30.08591 q 0,0 0.41498,-0.13833 0.41497,-0.13833 0.5533,-0.20749 1.79824,-0.76079 2.76652,-2.14405 0.96828,-1.45243 0.96828,-3.38899 0,-1.03744 -0.41498,-2.07489 -0.34581,-1.10661 -1.03744,-1.93656 -0.62247,-0.82996 -1.59075,-1.38326 -0.96828,-0.55331 -2.14405,-0.55331 h -30.50089 q -1.38326,0 -2.90484,0.34582 -1.45243,0.34581 -2.76652,0.82995 -3.11234,1.03745 -5.60221,2.83569 -2.4207,1.79823 -4.14978,4.21894 -1.72907,2.4207 -2.69735,5.32555 -0.89912,2.90485 -0.89912,6.15551 0,1.8674 0.76079,3.52731 0.76079,1.65991 2.69736,2.42071 0.27665,0.13832 0.82995,0.34581 0.55331,0.13833 0.55331,0.13833 h 35.82643 q -0.48414,0.76079 -1.52158,1.24493 -0.96829,0.48414 -1.79824,0.69163 -0.41498,0.13833 -1.17577,0.34582 -0.7608,0.13832 -0.82996,0.13832 h -30.15507 q -0.13832,0 -0.62246,0.13833 -0.48415,0.13832 -0.69163,0.20749 -1.79824,0.69163 -2.83569,2.21321 -1.03744,1.52159 -1.03744,3.38899 z"
       id="path364"
       style="font-size:69.163px;font-family:'Quantum Round (BRK)';-inkscape-font-specification:'Quantum Round (BRK), Normal';text-align:center;word-spacing:1.60034px;text-anchor:middle;fill:#396aa2;stroke-width:1.29538;stroke-linejoin:round;stroke-opacity:0.502783" />
  </g>
</svg>
